name ../VV_Laxity/vv_0.mot
datacolumns  10
datarows 70
range   14.00000000 14.69000000
cursor 1.0 1.0 0.0
keys m_key
wrap
enforce_loops no
enforce_constraints no
calc_derivatives -1.000000
event_color 0.000000 0.000000 0.000000
endheader
            time femur_r_force_vx femur_r_force_vy femur_r_force_vz femur_r_force_px femur_r_force_py femur_r_force_pz femur_r_torque_x femur_r_torque_y femur_r_torque_z 
     14.00000000       0.00000000       0.00000000       0.00000000      -0.00600000      -0.51300000       0.00000000      -0.22213597       0.00000000       0.00000000 
     14.01000000       0.00000000       0.00000000       0.00000000      -0.00600000      -0.51300000       0.00000000      -0.21484619       0.00000000       0.00000000 
     14.02000000       0.00000000       0.00000000       0.00000000      -0.00600000      -0.51300000       0.00000000      -0.20767541       0.00000000       0.00000000 
     14.03000000       0.00000000       0.00000000       0.00000000      -0.00600000      -0.51300000       0.00000000      -0.20062379       0.00000000       0.00000000 
     14.04000000       0.00000000       0.00000000       0.00000000      -0.00600000      -0.51300000       0.00000000      -0.19369152       0.00000000       0.00000000 
     14.05000000       0.00000000       0.00000000       0.00000000      -0.00600000      -0.51300000       0.00000000      -0.18687877       0.00000000       0.00000000 
     14.06000000       0.00000000       0.00000000       0.00000000      -0.00600000      -0.51300000       0.00000000      -0.18018570       0.00000000       0.00000000 
     14.07000000       0.00000000       0.00000000       0.00000000      -0.00600000      -0.51300000       0.00000000      -0.17361248       0.00000000       0.00000000 
     14.08000000       0.00000000       0.00000000       0.00000000      -0.00600000      -0.51300000       0.00000000      -0.16715928       0.00000000       0.00000000 
     14.09000000       0.00000000       0.00000000       0.00000000      -0.00600000      -0.51300000       0.00000000      -0.16082626       0.00000000       0.00000000 
     14.10000000       0.00000000       0.00000000       0.00000000      -0.00600000      -0.51300000       0.00000000      -0.15461357       0.00000000       0.00000000 
     14.11000000       0.00000000       0.00000000       0.00000000      -0.00600000      -0.51300000       0.00000000      -0.14852137       0.00000000       0.00000000 
     14.12000000       0.00000000       0.00000000       0.00000000      -0.00600000      -0.51300000       0.00000000      -0.14254981       0.00000000       0.00000000 
     14.13000000       0.00000000       0.00000000       0.00000000      -0.00600000      -0.51300000       0.00000000      -0.13669904       0.00000000       0.00000000 
     14.14000000       0.00000000       0.00000000       0.00000000      -0.00600000      -0.51300000       0.00000000      -0.13096920       0.00000000       0.00000000 
     14.15000000       0.00000000       0.00000000       0.00000000      -0.00600000      -0.51300000       0.00000000      -0.12536044       0.00000000       0.00000000 
     14.16000000       0.00000000       0.00000000       0.00000000      -0.00600000      -0.51300000       0.00000000      -0.11987289       0.00000000       0.00000000 
     14.17000000       0.00000000       0.00000000       0.00000000      -0.00600000      -0.51300000       0.00000000      -0.11450670       0.00000000       0.00000000 
     14.18000000       0.00000000       0.00000000       0.00000000      -0.00600000      -0.51300000       0.00000000      -0.10926200       0.00000000       0.00000000 
     14.19000000       0.00000000       0.00000000       0.00000000      -0.00600000      -0.51300000       0.00000000      -0.10413891       0.00000000       0.00000000 
     14.20000000       0.00000000       0.00000000       0.00000000      -0.00600000      -0.51300000       0.00000000      -0.09913756       0.00000000       0.00000000 
     14.21000000       0.00000000       0.00000000       0.00000000      -0.00600000      -0.51300000       0.00000000      -0.09425808       0.00000000       0.00000000 
     14.22000000       0.00000000       0.00000000       0.00000000      -0.00600000      -0.51300000       0.00000000      -0.08950059       0.00000000       0.00000000 
     14.23000000       0.00000000       0.00000000       0.00000000      -0.00600000      -0.51300000       0.00000000      -0.08486521       0.00000000       0.00000000 
     14.24000000       0.00000000       0.00000000       0.00000000      -0.00600000      -0.51300000       0.00000000      -0.08035206       0.00000000       0.00000000 
     14.25000000       0.00000000       0.00000000       0.00000000      -0.00600000      -0.51300000       0.00000000      -0.07596123       0.00000000       0.00000000 
     14.26000000       0.00000000       0.00000000       0.00000000      -0.00600000      -0.51300000       0.00000000      -0.07169286       0.00000000       0.00000000 
     14.27000000       0.00000000       0.00000000       0.00000000      -0.00600000      -0.51300000       0.00000000      -0.06754703       0.00000000       0.00000000 
     14.28000000       0.00000000       0.00000000       0.00000000      -0.00600000      -0.51300000       0.00000000      -0.06352386       0.00000000       0.00000000 
     14.29000000       0.00000000       0.00000000       0.00000000      -0.00600000      -0.51300000       0.00000000      -0.05962344       0.00000000       0.00000000 
     14.30000000       0.00000000       0.00000000       0.00000000      -0.00600000      -0.51300000       0.00000000      -0.05584587       0.00000000       0.00000000 
     14.31000000       0.00000000       0.00000000       0.00000000      -0.00600000      -0.51300000       0.00000000      -0.05219124       0.00000000       0.00000000 
     14.32000000       0.00000000       0.00000000       0.00000000      -0.00600000      -0.51300000       0.00000000      -0.04865966       0.00000000       0.00000000 
     14.33000000       0.00000000       0.00000000       0.00000000      -0.00600000      -0.51300000       0.00000000      -0.04525119       0.00000000       0.00000000 
     14.34000000       0.00000000       0.00000000       0.00000000      -0.00600000      -0.51300000       0.00000000      -0.04196593       0.00000000       0.00000000 
     14.35000000       0.00000000       0.00000000       0.00000000      -0.00600000      -0.51300000       0.00000000      -0.03880397       0.00000000       0.00000000 
     14.36000000       0.00000000       0.00000000       0.00000000      -0.00600000      -0.51300000       0.00000000      -0.03576537       0.00000000       0.00000000 
     14.37000000       0.00000000       0.00000000       0.00000000      -0.00600000      -0.51300000       0.00000000      -0.03285021       0.00000000       0.00000000 
     14.38000000       0.00000000       0.00000000       0.00000000      -0.00600000      -0.51300000       0.00000000      -0.03005858       0.00000000       0.00000000 
     14.39000000       0.00000000       0.00000000       0.00000000      -0.00600000      -0.51300000       0.00000000      -0.02739052       0.00000000       0.00000000 
     14.40000000       0.00000000       0.00000000       0.00000000      -0.00600000      -0.51300000       0.00000000      -0.02484612       0.00000000       0.00000000 
     14.41000000       0.00000000       0.00000000       0.00000000      -0.00600000      -0.51300000       0.00000000      -0.02242544       0.00000000       0.00000000 
     14.42000000       0.00000000       0.00000000       0.00000000      -0.00600000      -0.51300000       0.00000000      -0.02012853       0.00000000       0.00000000 
     14.43000000       0.00000000       0.00000000       0.00000000      -0.00600000      -0.51300000       0.00000000      -0.01795545       0.00000000       0.00000000 
     14.44000000       0.00000000       0.00000000       0.00000000      -0.00600000      -0.51300000       0.00000000      -0.01590627       0.00000000       0.00000000 
     14.45000000       0.00000000       0.00000000       0.00000000      -0.00600000      -0.51300000       0.00000000      -0.01398101       0.00000000       0.00000000 
     14.46000000       0.00000000       0.00000000       0.00000000      -0.00600000      -0.51300000       0.00000000      -0.01217975       0.00000000       0.00000000 
     14.47000000       0.00000000       0.00000000       0.00000000      -0.00600000      -0.51300000       0.00000000      -0.01050251       0.00000000       0.00000000 
     14.48000000       0.00000000       0.00000000       0.00000000      -0.00600000      -0.51300000       0.00000000      -0.00894935       0.00000000       0.00000000 
     14.49000000       0.00000000       0.00000000       0.00000000      -0.00600000      -0.51300000       0.00000000      -0.00752030       0.00000000       0.00000000 
     14.50000000       0.00000000       0.00000000       0.00000000      -0.00600000      -0.51300000       0.00000000      -0.00621539       0.00000000       0.00000000 
     14.51000000       0.00000000       0.00000000       0.00000000      -0.00600000      -0.51300000       0.00000000       0.00000000       0.00000000       0.00000000 
     14.52000000       0.00000000       0.00000000       0.00000000      -0.00600000      -0.51300000       0.00000000       0.00000000       0.00000000       0.00000000 
     14.53000000       0.00000000       0.00000000       0.00000000      -0.00600000      -0.51300000       0.00000000       0.00000000       0.00000000       0.00000000 
     14.54000000       0.00000000       0.00000000       0.00000000      -0.00600000      -0.51300000       0.00000000       0.00000000       0.00000000       0.00000000 
     14.55000000       0.00000000       0.00000000       0.00000000      -0.00600000      -0.51300000       0.00000000       0.00000000       0.00000000       0.00000000 
     14.56000000       0.00000000       0.00000000       0.00000000      -0.00600000      -0.51300000       0.00000000       0.00000000       0.00000000       0.00000000 
     14.57000000       0.00000000       0.00000000       0.00000000      -0.00600000      -0.51300000       0.00000000       0.00000000       0.00000000       0.00000000 
     14.58000000       0.00000000       0.00000000       0.00000000      -0.00600000      -0.51300000       0.00000000       0.00000000       0.00000000       0.00000000 
     14.59000000       0.00000000       0.00000000       0.00000000      -0.00600000      -0.51300000       0.00000000       0.00000000       0.00000000       0.00000000 
     14.60000000       0.00000000       0.00000000       0.00000000      -0.00600000      -0.51300000       0.00000000       0.00000000       0.00000000       0.00000000 
     14.61000000       0.00000000       0.00000000       0.00000000      -0.00600000      -0.51300000       0.00000000       0.00000000       0.00000000       0.00000000 
     14.62000000       0.00000000       0.00000000       0.00000000      -0.00600000      -0.51300000       0.00000000       0.00000000       0.00000000       0.00000000 
     14.63000000       0.00000000       0.00000000       0.00000000      -0.00600000      -0.51300000       0.00000000       0.00000000       0.00000000       0.00000000 
     14.64000000       0.00000000       0.00000000       0.00000000      -0.00600000      -0.51300000       0.00000000       0.00000000       0.00000000       0.00000000 
     14.65000000       0.00000000       0.00000000       0.00000000      -0.00600000      -0.51300000       0.00000000       0.00000000       0.00000000       0.00000000 
     14.66000000       0.00000000       0.00000000       0.00000000      -0.00600000      -0.51300000       0.00000000       0.00000000       0.00000000       0.00000000 
     14.67000000       0.00000000       0.00000000       0.00000000      -0.00600000      -0.51300000       0.00000000       0.00000000       0.00000000       0.00000000 
     14.68000000       0.00000000       0.00000000       0.00000000      -0.00600000      -0.51300000       0.00000000       0.00000000       0.00000000       0.00000000 
     14.69000000       0.00000000       0.00000000       0.00000000      -0.00600000      -0.51300000       0.00000000       0.00000000       0.00000000       0.00000000 
